<svg width="1512" height="491" viewBox="0 0 1512 491" fill="none" xmlns="http://www.w3.org/2000/svg">
<rect width="1512" height="491" fill="#E5E5E5"/>
<rect width="1512" height="491" fill="#F05454"/>
<path d="M424 478.5C424 600.279 329.084 699 212 699C94.9156 699 0 600.279 0 478.5C0 356.721 94.9156 258 212 258C329.084 258 424 356.721 424 478.5Z" fill="#30475E"/>
<path d="M1093 -3.90134e-07C1093 85.6041 1026.29 155 944 155C861.71 155 795 85.6041 795 -3.90134e-07C795 -85.6041 861.71 -155 944 -155C1026.29 -155 1093 -85.6041 1093 -3.90134e-07Z" fill="#30475E"/>
<path d="M905 421C905 506.604 838.29 576 756 576C673.71 576 607 506.604 607 421C607 335.396 673.71 266 756 266C838.29 266 905 335.396 905 421Z" fill="#30475E"/>
<path d="M1702 245.5C1702 367.831 1606.64 467 1489 467C1371.36 467 1276 367.831 1276 245.5C1276 123.169 1371.36 24 1489 24C1606.64 24 1702 123.169 1702 245.5Z" fill="#30475E"/>
</svg>
