<svg width="1512" height="1036" viewBox="0 0 1512 1036" fill="none" xmlns="http://www.w3.org/2000/svg">
<rect width="1512" height="1036" fill="#E5E5E5"/>
<rect width="1512" height="1036" fill="#F05454"/>
<path d="M590 370.5C590 492.279 495.084 591 378 591C260.916 591 166 492.279 166 370.5C166 248.721 260.916 150 378 150C495.084 150 590 248.721 590 370.5Z" fill="#30475E"/>
<path d="M1174 49.5C1174 134.828 1107.51 204 1025.5 204C943.486 204 877 134.828 877 49.5C877 -35.828 943.486 -105 1025.5 -105C1107.51 -105 1174 -35.828 1174 49.5Z" fill="#30475E"/>
<ellipse cx="1451" cy="262" rx="165" ry="172" fill="#30475E"/>
</svg>
