<svg width="16" height="14" viewBox="0 0 16 14" fill="none" xmlns="http://www.w3.org/2000/svg">
<g clip-path="url(#clip0_4_152)">
<path d="M12.5837 8.97167C11.8245 8.97167 11.0899 8.855 10.4048 8.645C10.1888 8.575 9.94803 8.6275 9.78137 8.785L8.81229 9.93417C7.06548 9.14667 5.42977 7.65917 4.55945 5.95L5.76309 4.98167C5.92975 4.81833 5.97913 4.59083 5.91123 4.38667C5.68285 3.73917 5.56557 3.045 5.56557 2.3275C5.56557 2.0125 5.28781 1.75 4.95449 1.75H2.81881C2.4855 1.75 2.08429 1.89 2.08429 2.3275C2.08429 7.74667 6.85562 12.25 12.5837 12.25C13.0219 12.25 13.1948 11.8825 13.1948 11.5617V9.54917C13.1948 9.23417 12.917 8.97167 12.5837 8.97167Z" fill="#121212"/>
</g>
<defs>
<clipPath id="clip0_4_152">
<rect width="14.814" height="14" fill="white" transform="translate(0.232544)"/>
</clipPath>
</defs>
</svg>
