<svg width="29" height="27" viewBox="0 0 29 27" fill="none" xmlns="http://www.w3.org/2000/svg">
<g clip-path="url(#clip0_2_29)">
<path d="M26.0637 0H2.50612C1.12203 0 0 1.06038 0 2.36842V3.37626C0 4.6843 1.12203 5.74468 2.50612 5.74468H26.0637C27.4477 5.74468 28.5698 4.6843 28.5698 3.37626V2.36842C28.5698 1.06038 27.4477 0 26.0637 0Z" fill="#121212"/>
<path d="M14.3622 10.6276H2.50612C1.12203 10.6276 0 11.688 0 12.9961V14.0039C0 15.3119 1.12203 16.3723 2.50612 16.3723H14.3622C15.7463 16.3723 16.8683 15.3119 16.8683 14.0039V12.9961C16.8683 11.688 15.7463 10.6276 14.3622 10.6276Z" fill="#121212"/>
<path d="M26.0637 21.2553H2.50612C1.12203 21.2553 0 22.3157 0 23.6237V24.6316C0 25.9396 1.12203 27 2.50612 27H26.0637C27.4477 27 28.5698 25.9396 28.5698 24.6316V23.6237C28.5698 22.3157 27.4477 21.2553 26.0637 21.2553Z" fill="#121212"/>
</g>
<defs>
<clipPath id="clip0_2_29">
<rect width="28.5698" height="27" fill="white"/>
</clipPath>
</defs>
</svg>
